<svg width="13" height="12" viewBox="0 0 13 12" fill="none" xmlns="http://www.w3.org/2000/svg">
<path d="M0.101562 10.793C0.101562 11.1445 0.335938 11.291 0.599609 11.291C0.751953 11.291 0.886719 11.209 1.05664 11.0918C1.68359 10.582 2.56836 10.2715 3.50586 10.2773C4.41992 10.2832 5.33398 10.6348 6.00195 11.3145C6.18945 11.4961 6.33594 11.5488 6.5 11.5488C6.66406 11.5488 6.81641 11.4902 6.99805 11.3145C7.67188 10.6465 8.57422 10.2832 9.49414 10.2773C10.4316 10.2715 11.3164 10.582 11.9434 11.0918C12.1133 11.209 12.2422 11.291 12.4004 11.291C12.6641 11.291 12.8984 11.1445 12.8984 10.793V2.84766C12.8984 2.74805 12.8867 2.67773 12.8281 2.57812C12.3008 1.69922 11 0.990234 9.47656 0.990234C8.16406 0.990234 7.08594 1.52344 6.5 2.29102C5.91406 1.52344 4.83594 0.990234 3.52344 0.990234C2 0.990234 0.699219 1.69922 0.171875 2.57812C0.113281 2.67773 0.101562 2.74805 0.101562 2.84766V10.793ZM0.828125 10.3652V2.93555C1.30859 2.20312 2.39258 1.7168 3.52344 1.7168C4.68945 1.7168 5.67383 2.20312 6.13672 2.98828V10.4824C5.5625 9.99609 4.58984 9.55078 3.52344 9.55078C2.4043 9.55078 1.43164 9.88477 0.828125 10.3652ZM6.86328 10.4824V2.98828C7.32031 2.20312 8.31055 1.7168 9.47656 1.7168C10.6074 1.7168 11.6855 2.20312 12.1719 2.93555V10.3652C11.5742 9.88477 10.5957 9.55078 9.47656 9.55078C8.41016 9.55078 7.4375 9.99609 6.86328 10.4824Z" fill="#1D9FB8"/>
</svg>
